<svg width="87" height="90" viewBox="0 0 87 90" fill="none" xmlns="http://www.w3.org/2000/svg">
<path d="M82.47 20.5879C78.676 19.6449 78.719 18.1679 81.449 14.6089C84.18 11.0489 88.922 4.83792 85.36 1.27592C81.798 -2.28608 75.587 2.45692 72.027 5.18692C68.467 7.91792 66.99 7.96092 66.048 4.16592C64.534 -1.93008 58.153 1.30492 56.738 8.39192C55.267 15.7589 53.578 16.9859 52.538 17.2249C48.198 18.2209 49.43 6.36792 43.73 7.83992C40.725 8.61592 38.007 11.1589 38.819 20.6909C39.426 27.8179 33.599 29.4769 32.9 26.1979C31.805 21.0669 30.623 15.1729 26.464 16.2389C19.612 17.9949 20.099 27.0659 20.336 31.7509C20.765 40.2329 18.131 43.1339 16.863 39.3489C16.037 36.8829 14.188 32.1629 10.837 33.8259C6.04097 36.2059 5.29097 51.9199 13.181 64.9619C14.676 63.3919 16.178 61.8289 17.685 60.2719L14.847 49.9829C14.761 49.6709 15.362 49.4709 15.48 49.7719L19.054 58.8529C19.136 58.7679 19.218 58.6829 19.3 58.5979C22.801 55.0109 26.337 51.4599 29.906 47.9449L27.522 33.4169C27.46 33.0379 28.079 32.9079 28.175 33.2799L31.536 46.3509C34.763 43.1909 38.012 40.0549 41.294 36.9529C42.604 35.7109 43.936 34.4899 45.258 33.2609L44.825 22.1959C44.814 21.9099 45.444 21.8479 45.489 22.1299L47.01 31.6299C49.924 28.9439 52.857 26.2789 55.828 23.6549C57.504 22.1739 59.197 20.7119 60.901 19.2609L61.758 10.5839C61.78 10.3629 62.413 10.3769 62.425 10.5979L62.818 17.6369C65.501 15.3949 68.226 13.2029 71.024 11.0979C71.451 10.7719 71.922 10.6869 72.089 10.9069C72.253 11.1219 72.068 11.5489 71.675 11.8849C71.547 11.9429 71.416 12.0159 71.287 12.1219C66.179 16.2729 61.325 20.7079 56.57 25.2359C51.813 29.7649 47.135 34.3739 42.542 39.0669C35.336 46.4049 28.279 53.8889 21.37 61.5179C14.478 69.1659 7.67597 76.8929 1.25097 85.0199C-0.40903 87.1379 -0.27703 88.7849 0.82997 89.5949C1.93697 90.4049 3.55797 90.0779 5.10097 87.9479C9.28497 82.2219 13.706 76.6309 18.218 71.1069C31.768 81.4539 50.216 81.0319 52.811 75.8019C54.474 72.4509 49.754 70.6019 47.288 69.7759C43.503 68.5079 46.404 65.8729 54.886 66.3029C59.57 66.5399 68.642 67.0269 70.398 60.1749C71.464 56.0159 65.57 54.8329 60.439 53.7389C57.16 53.0389 58.819 47.2119 65.946 47.8199C75.478 48.6319 78.021 45.9139 78.797 42.9089C80.269 37.2089 68.416 38.4409 69.412 34.1009C69.651 33.0609 70.878 31.3719 78.245 29.9009C85.331 28.4829 88.565 22.1019 82.47 20.5879ZM37.561 71.2599L21.571 67.0299C22.078 66.4179 22.583 65.8049 23.092 65.1949L37.763 70.6239C38.097 70.7469 37.906 71.3509 37.561 71.2599ZM55.119 58.5219L32.877 53.8909C32.834 53.8819 32.796 53.8659 32.755 53.8539C33.312 53.2129 33.866 52.5699 34.425 51.9309L55.279 57.8749C55.733 58.0039 55.582 58.6179 55.119 58.5219ZM65.878 40.9609L47.427 37.9729C47.303 37.9529 47.196 37.8989 47.093 37.8379C47.674 37.2069 48.254 36.5769 48.838 35.9489L66.013 40.3079C66.39 40.4029 66.261 41.0229 65.878 40.9609ZM75.967 24.0239L61.824 22.4779C61.813 22.4769 61.804 22.4689 61.793 22.4669C62.439 21.8239 63.089 21.1859 63.741 20.5489L76.078 23.3659C76.366 23.4319 76.261 24.0559 75.967 24.0239Z" fill="#166534"/>
</svg>
