<svg width="88" height="90" viewBox="0 0 88 90" fill="none" xmlns="http://www.w3.org/2000/svg">
<path d="M83.152 20.588C79.358 19.645 79.401 18.168 82.131 14.609C84.862 11.049 89.604 4.838 86.042 1.276C82.48 -2.286 76.269 2.457 72.709 5.187C69.149 7.918 67.672 7.961 66.73 4.166C65.216 -1.93 58.835 1.305 57.42 8.392C55.949 15.759 54.26 16.986 53.22 17.225C48.88 18.221 50.112 6.368 44.412 7.84C41.407 8.616 38.689 11.159 39.501 20.691C40.108 27.818 34.281 29.477 33.582 26.198C32.487 21.067 31.305 15.173 27.146 16.239C20.294 17.995 20.781 27.066 21.018 31.751C21.447 40.233 18.813 43.134 17.545 39.349C16.719 36.883 14.87 32.163 11.519 33.826C6.723 36.206 5.973 51.92 13.863 64.962C15.358 63.392 16.86 61.829 18.367 60.272L15.529 49.983C15.443 49.671 16.044 49.471 16.162 49.772L19.736 58.853C19.818 58.768 19.9 58.683 19.982 58.598C23.483 55.011 27.019 51.46 30.588 47.945L28.204 33.417C28.142 33.038 28.761 32.908 28.857 33.28L32.218 46.351C35.445 43.191 38.694 40.055 41.976 36.953C43.286 35.711 44.618 34.49 45.94 33.261L45.507 22.196C45.496 21.91 46.126 21.848 46.171 22.13L47.692 31.63C50.606 28.944 53.539 26.279 56.51 23.655C58.186 22.174 59.879 20.712 61.583 19.261L62.44 10.584C62.462 10.363 63.095 10.377 63.107 10.598L63.5 17.637C66.183 15.395 68.908 13.203 71.706 11.098C72.133 10.772 72.604 10.687 72.771 10.907C72.935 11.122 72.75 11.549 72.357 11.885C72.229 11.943 72.098 12.016 71.969 12.122C66.861 16.273 62.007 20.708 57.252 25.236C52.495 29.765 47.817 34.374 43.224 39.067C36.018 46.405 28.961 53.889 22.052 61.518C15.16 69.166 8.358 76.893 1.933 85.02C0.272999 87.138 0.404999 88.785 1.512 89.595C2.619 90.405 4.24 90.078 5.783 87.948C9.967 82.222 14.388 76.631 18.9 71.107C32.45 81.454 50.898 81.032 53.493 75.802C55.156 72.451 50.436 70.602 47.97 69.776C44.185 68.508 47.086 65.873 55.568 66.303C60.252 66.54 69.324 67.027 71.08 60.175C72.146 56.016 66.252 54.833 61.121 53.739C57.842 53.039 59.501 47.212 66.628 47.82C76.16 48.632 78.703 45.914 79.479 42.909C80.951 37.209 69.098 38.441 70.094 34.101C70.333 33.061 71.56 31.372 78.927 29.901C86.013 28.483 89.247 22.102 83.152 20.588ZM38.243 71.26L22.253 67.03C22.76 66.418 23.265 65.805 23.774 65.195L38.445 70.624C38.779 70.747 38.588 71.351 38.243 71.26ZM55.801 58.522L33.559 53.891C33.516 53.882 33.478 53.866 33.437 53.854C33.994 53.213 34.548 52.57 35.107 51.931L55.961 57.875C56.415 58.004 56.264 58.618 55.801 58.522ZM66.56 40.961L48.109 37.973C47.985 37.953 47.878 37.899 47.775 37.838C48.356 37.207 48.936 36.577 49.52 35.949L66.695 40.308C67.072 40.403 66.943 41.023 66.56 40.961ZM76.649 24.024L62.506 22.478C62.495 22.477 62.486 22.469 62.475 22.467C63.121 21.824 63.771 21.186 64.423 20.549L76.76 23.366C77.048 23.432 76.943 24.056 76.649 24.024Z" fill="black"/>
</svg>
